#!OML:ASF H:\Terrain\Patient Classification 1\Terrain2\Thursday\justin.ASF
:FULLY-SPECIFIED
:DEGREES
1078
root 11.8192 20.749 -10.5001 185.048 -83.9829 -542.146
lowerback 7.68279 0.287237 -3.13646
upperback 2.65219 0.112342 1.86675
thorax -1.57393 0.0111801 3.68648
lowerneck -12.2537 0.255868 -8.56389
upperneck 40.8127 -0.691735 3.2651
head 16.9049 -1.87931 2.68334
rclavicle 2.08724e-015 4.37326e-015
rhumerus -29.4771 -8.38878 -78.6633
rradius 32.4432
rwrist -12.3512
rhand -20.9378 12.1551
rfingers 7.12502
rthumb 5.4344 -17.7552
lclavicle 2.08724e-015 4.37326e-015
lhumerus -26.9056 5.04515 82.1351
lradius 43.8911
lwrist 10.0513
lhand -21.1166 21.4822
lfingers 7.12502
lthumb 5.26181 51.3969
rfemur -20.8973 -3.38306 21.6256
rtibia 56.5005
rfoot -24.728 -2.4581
rtoes 4.1452
lfemur -12.8389 -2.36848 -20.2861
ltibia 24.761
lfoot -4.53114 -11.532
ltoes 50.2207
1079
root 11.7707 20.7433 -10.5119 184.497 -84.0877 -541.493
lowerback 7.62072 0.237247 -2.97301
upperback 2.6098 0.0612554 1.89038
thorax -1.57905 -0.0126991 3.62283
lowerneck -12.1804 0.251861 -8.45711
upperneck 40.8259 -0.68679 3.11615
head 16.8931 -1.88354 2.59653
rclavicle 3.8763e-015 -1.39149e-014
rhumerus -29.5681 -8.6239 -78.6535
rradius 32.1783
rwrist -12.0612
rhand -20.6955 11.8094
rfingers 7.12502
rthumb 5.66835 -18.0948
lclavicle 3.8763e-015 -1.39149e-014
lhumerus -27.1699 4.83801 82.2378
lradius 43.7851
lwrist 10.1349
lhand -21.1301 21.5288
lfingers 7.12502
lthumb 5.24877 51.4438
rfemur -20.8539 -3.25167 21.7535
rtibia 54.9324
rfoot -25.2576 -1.26801
rtoes 4.06264
lfemur -13.0712 -2.8793 -20.1545
ltibia 25.2832
lfoot -4.79432 -11.3442
ltoes 50.2739
1080
root 11.7242 20.7344 -10.5267 181.529 -84.2 -538.332
lowerback 7.49921 0.218849 -2.75402
upperback 2.55824 0.0596071 2.07805
thorax -1.56497 -0.0129851 3.69374
lowerneck -12.2023 0.246038 -8.35215
upperneck 40.8923 -0.67902 2.98
head 16.935 -1.88601 2.51824
rclavicle -3.37934e-015 2.06736e-014
rhumerus -29.6308 -8.77225 -78.5782
rradius 31.8937
rwrist -11.9183
rhand -20.7565 11.7551
rfingers 7.12502
rthumb 5.60948 -18.1507
lclavicle -3.37934e-015 2.06736e-014
lhumerus -27.3109 4.8544 82.4843
lradius 43.5101
lwrist 9.9356
lhand -20.5874 21.6965
lfingers 7.12502
lthumb 5.77269 51.5979
rfemur -20.8586 -3.05088 22.2101
rtibia 53.2653
rfoot -25.5361 -0.532043
rtoes 3.04657
lfemur -13.425 -2.76282 -19.7306
ltibia 25.8332
lfoot -4.54662 -11.6864
ltoes 51.0547
1081
root 11.6774 20.7215 -10.5424 178.08 -84.3114 -534.691
lowerback 7.35642 0.0927934 -2.56028
upperback 2.54643 -0.0886626 2.34481
thorax -1.48529 -0.0897492 3.87359
lowerneck -12.3864 0.360679 -8.6001
upperneck 41.0251 -0.47712 3.12871
head 17.0396 -1.82874 2.66838
rclavicle 1.59028e-014 -1.63003e-014
rhumerus -29.5483 -8.79279 -78.4663
rradius 31.5954
rwrist -11.6419
rhand -20.8673 12.1974
rfingers 7.12502
rthumb 5.50242 -17.7111
lclavicle 1.59028e-014 -1.63003e-014
lhumerus -27.5168 5.26966 82.7748
lradius 43.2418
lwrist 9.71706
lhand -20.4003 22.107
lfingers 7.12502
lthumb 5.95339 52.0034
rfemur -20.8363 -2.71304 22.6363
rtibia 51.6248
rfoot -25.7918 -0.0701302
rtoes 1.87092
lfemur -13.6823 -2.50599 -19.2644
ltibia 26.3565
lfoot -4.36639 -12.4349
ltoes 52.0724
1082
root 11.6276 20.7054 -10.5613 175.182 -84.3838 -531.755
lowerback 7.29377 -0.0291862 -2.32372
upperback 2.5929 -0.234856 2.49969
thorax -1.39045 -0.166843 3.91223
lowerneck -12.5018 0.451235 -8.77326
upperneck 41.0751 -0.299896 3.19437
head 17.082 -1.77697 2.76161
rclavicle 1.88845e-015 4.37326e-015
rhumerus -29.5322 -9.01797 -78.406
rradius 31.41
rwrist -11.2543
rhand -20.9603 12.4387
rfingers 7.12502
rthumb 5.41271 -17.4722
lclavicle 1.88845e-015 4.37326e-015
lhumerus -27.7673 5.47759 82.9373
lradius 43.0232
lwrist 9.63827
lhand -20.4829 21.838
lfingers 7.12502
lthumb 5.87365 51.7366
rfemur -20.6736 -2.29916 22.9614
rtibia 50.0671
rfoot -25.9501 0.21809
rtoes -0.220266
lfemur -13.6401 -2.94957 -18.8546
ltibia 26.7344
lfoot -4.70025 -12.9618
ltoes 52.7449
1083
root 11.5753 20.6822 -10.579 174.909 -84.5079 -531.406
lowerback 7.17228 -0.0186841 -2.17643
upperback 2.59299 -0.208881 2.45131
thorax -1.32621 -0.153811 3.775
lowerneck -12.4805 0.373961 -8.59271
upperneck 41.06 -0.412587 3.04234
head 17.0788 -1.81331 2.64019
rclavicle -9.14409e-015 1.98785e-014
rhumerus -29.7375 -9.41684 -78.4629
rradius 31.3484
rwrist -11.2256
rhand -21.6601 12.2774
rfingers 7.12502
rthumb 4.73703 -17.6496
lclavicle -9.14409e-015 1.98785e-014
lhumerus -27.879 5.09759 83.0858
lradius 42.702
lwrist 9.4803
lhand -20.314 21.402
lfingers 7.12502
lthumb 6.03665 51.296
rfemur -20.6277 -2.03285 23.0051
rtibia 48.6109
rfoot -25.6295 1.44604
rtoes 0.100607
lfemur -13.7744 -3.3692 -18.7947
ltibia 27.0906
lfoot -5.5296 -13.3665
ltoes 53.0121
1084
root 11.5282 20.6694 -10.5921 174.18 -84.6537 -530.525
lowerback 7.0606 -0.0156245 -1.94658
upperback 2.56107 -0.186737 2.39499
thorax -1.30037 -0.140906 3.5835
lowerneck -12.3908 0.303924 -8.43424
upperneck 40.9464 -0.578547 3.07357
head 17.0046 -1.84383 2.59571
rclavicle -9.24349e-015 -1.39149e-014
rhumerus -29.8992 -9.56571 -78.6302
rradius 31.1966
rwrist -11.1059
rhand -22.4998 12.0318
rfingers 7.12502
rthumb 3.92611 -17.9117
lclavicle -9.24349e-015 -1.39149e-014
lhumerus -28.0147 4.6325 83.2682
lradius 42.3425
lwrist 9.38781
lhand -20.1614 21.3881
lfingers 7.12502
lthumb 6.18397 51.2778
rfemur -20.6481 -1.95963 23.0991
rtibia 47.2028
rfoot -25.0428 2.71046
rtoes 2.84209
lfemur -14.0116 -3.39838 -18.7152
ltibia 27.4654
lfoot -6.28043 -13.4889
ltoes 52.6062
1085
root 11.4827 20.6711 -10.604 171.837 -84.7635 -528.122
lowerback 7.07461 -0.0948422 -1.74192
upperback 2.54913 -0.278379 2.537
thorax -1.3138 -0.187308 3.62275
lowerneck -12.2409 0.307607 -8.73105
upperneck 40.7233 -0.590327 3.35644
head 16.8435 -1.84301 2.7713
rclavicle 3.27995e-015 -2.34566e-014
rhumerus -29.978 -9.41749 -78.6103
rradius 30.9552
rwrist -10.6511
rhand -22.2991 12.0786
rfingers 7.12502
rthumb 4.11998 -17.8613
lclavicle 3.27995e-015 -2.34566e-014
lhumerus -28.2426 4.76542 83.5624
lradius 41.895
lwrist 9.05946
lhand -20.038 21.3825
lfingers 7.12502
lthumb 6.3031 51.2687
rfemur -20.4693 -2.07131 23.3749
rtibia 45.8484
rfoot -24.9383 2.01605
rtoes 0.898285
lfemur -13.977 -3.08351 -18.4902
ltibia 27.8028
lfoot -6.32192 -13.5041
ltoes 52.0872
1086
root 11.4308 20.6614 -10.6175 172.12 -84.8589 -528.4
lowerback 7.07222 -0.0997998 -1.72869
upperback 2.51039 -0.282258 2.5899
thorax -1.35188 -0.188163 3.67081
lowerneck -12.0866 0.285829 -8.85741
upperneck 40.6182 -0.64024 3.46538
head 16.7514 -1.86311 2.83191
rclavicle -9.93923e-016 -7.15625e-015
rhumerus -30.2278 -9.55213 -78.5038
rradius 30.8164
rwrist -10.4025
rhand -21.7425 12.2033
rfingers 7.12502
rthumb 4.65744 -17.7255
lclavicle -9.93923e-016 -7.15625e-015
lhumerus -28.483 4.58686 83.8835
lradius 41.3989
lwrist 8.73373
lhand -20.2043 21.2912
lfingers 7.12502
lthumb 6.14255 51.1821
rfemur -20.2216 -2.22938 23.3767
rtibia 44.6299
rfoot -25.1095 1.09398
rtoes -2.49237
lfemur -13.8989 -3.04673 -18.5407
ltibia 28.1314
lfoot -6.57909 -13.4861
ltoes 51.7791
1087
root 11.3777 20.6448 -10.6361 174.456 -84.9694 -530.726
lowerback 6.95714 -0.107346 -1.86673
upperback 2.52449 -0.300217 2.55014
thorax -1.27145 -0.198163 3.70786
lowerneck -12.0951 0.30623 -8.72694
upperneck 40.6739 -0.584045 3.29362
head 16.7792 -1.84609 2.74122
rclavicle -1.46107e-014 -6.36111e-015
rhumerus -30.3703 -9.76093 -78.5105
rradius 30.7108
rwrist -10.3257
rhand -21.608 11.9581
rfingers 7.12502
rthumb 4.78726 -17.9678
lclavicle -1.46107e-014 -6.36111e-015
lhumerus -28.6648 4.10801 84.1468
lradius 40.9499
lwrist 8.70477
lhand -20.6265 21.0694
lfingers 7.12502
lthumb 5.73499 50.9718
rfemur -20.027 -2.34768 23.147
rtibia 43.5763
rfoot -25.0004 1.30493
rtoes -1.89109
lfemur -13.8172 -3.72502 -18.771
ltibia 28.3815
lfoot -7.49009 -13.1717
ltoes 51.5495
1088
root 11.3295 20.6294 -10.657 177.272 -85.1483 -533.598
lowerback 6.93086 -0.222169 -2.20205
upperback 2.61006 -0.477255 2.6298
thorax -1.15058 -0.292565 3.99393
lowerneck -12.2547 0.374608 -8.88187
upperneck 40.7781 -0.334862 3.08099
head 16.8594 -1.80163 2.71755
rclavicle -2.48481e-015 -5.56597e-015
rhumerus -30.3731 -9.15748 -78.5196
rradius 30.7066
rwrist -10.6935
rhand -21.5196 11.6625
rfingers 7.12502
rthumb 4.87269 -18.2615
lclavicle -2.48481e-015 -5.56597e-015
lhumerus -28.7538 4.29365 84.4167
lradius 40.4317
lwrist 8.39349
lhand -20.2166 20.7979
lfingers 7.12502
lthumb 6.13069 50.6892
rfemur -19.8502 -2.56215 22.8642
rtibia 42.7141
rfoot -24.3483 1.45782
rtoes -0.527367
lfemur -13.6004 -4.04889 -19.0445
ltibia 28.4429
lfoot -7.86502 -13.1491
ltoes 51.7706
